<svg width="50" height="50" xmlns="http://www.w3.org/2000/svg">

 <g>
  <title>background</title>
  <rect fill="none" id="canvas_background" height="52" width="52" y="-1" x="-1"/>
 </g>
 <g>
  <title>Layer 1</title>
  <g stroke="null" id="svg_1">
   <path stroke="null" id="svg_2" d="m46.74819,23.40566c0.038511,-0.465651 0.060319,-0.934111 0.060319,-1.40566c0,-0.974834 -0.084362,-1.954723 -0.250745,-2.912519c-0.059681,-0.343013 -0.394787,-0.595966 -0.788723,-0.595966c-1.438085,0.006179 -2.864362,0.068247 -4.279681,0.182834l0,-2.246715c0.087021,0.027149 0.176702,0.040443 0.265319,0.040443c0.29266,0 0.574468,-0.142298 0.714255,-0.38823c0.197128,-0.346851 0.03734,-0.768596 -0.356809,-0.941974l-4.255319,-1.87234c-0.224574,-0.09886 -0.489043,-0.09886 -0.713617,0l-4.255319,1.87234c-0.394149,0.173379 -0.553936,0.595123 -0.356809,0.941974c0.182128,0.320638 0.605213,0.464528 0.979574,0.347413l0,3.48274c-9.321808,2.153566 -17.802872,6.693243 -24.320106,13.159651c-0.507766,-0.560392 -0.977872,-1.148119 -1.407021,-1.760562c0.187021,0.017787 0.373191,0.036511 0.55766,0.056732c0.033511,0.003651 0.066702,0.005523 0.099681,0.005523c0.396702,0 0.740426,-0.260068 0.790745,-0.615438c0.054468,-0.384766 -0.255851,-0.735549 -0.693085,-0.783574c-0.553404,-0.060664 -1.119468,-0.110468 -1.688085,-0.149413c-0.43117,-0.771498 -0.800426,-1.57417 -1.102553,-2.403149c2.141596,0.083787 4.274362,0.319702 6.354681,0.70606c0.055532,0.010298 0.110851,0.01526 0.165532,0.01526c0.369149,0 0.700638,-0.22674 0.779894,-0.557302c0.090957,-0.37943 -0.184787,-0.751838 -0.615957,-0.831974c-2.332234,-0.433072 -4.727447,-0.683779 -7.129042,-0.751183c-0.201064,-0.766723 -0.344255,-1.552545 -0.428191,-2.353251c3.886064,0.068715 7.724574,0.589226 11.422553,1.551047c0.075426,0.01966 0.151596,0.029021 0.226489,0.029021c0.344362,0 0.662234,-0.197813 0.764787,-0.503285c0.124894,-0.371847 -0.116383,-0.762417 -0.539043,-0.872323c-3.871383,-1.006851 -7.890638,-1.547677 -11.958723,-1.610494c-0.001383,-0.080511 -0.003617,-0.16074 -0.003617,-0.241345c0,-0.700349 0.046915,-1.403413 0.139787,-2.097302c5.507979,0.093243 10.885851,1.007038 15.995851,2.718919c0.412021,0.138179 0.872872,-0.044 1.029574,-0.406391c0.156809,-0.362391 -0.05,-0.768034 -0.461808,-0.906026c-5.505745,-1.844443 -11.311383,-2.792689 -17.255638,-2.818247c-0.397766,0 -0.732979,0.253047 -0.792553,0.595966c-0.166596,0.957889 -0.250957,1.937966 -0.250957,2.913081c0,1.687447 0.249787,3.32434 0.716702,4.884468c1.303085,4.354128 4.305425,8.107421 8.342553,10.676179c0.003723,0.002434 0.007447,0.004868 0.011277,0.007209c3.58617,2.278732 7.986702,3.623634 12.737978,3.623634c3.12734,0 6.148936,-0.573217 8.980851,-1.703736c0.401277,-0.160179 0.579043,-0.576306 0.396915,-0.929523c-0.181915,-0.35303 -0.654681,-0.509464 -1.056277,-0.349285c-2.623298,1.047294 -5.422979,1.578289 -8.321489,1.578289c-0.292553,0 -0.583191,-0.00674 -0.872766,-0.0176c4.759362,-3.660894 10.64117,-6.067694 16.868829,-6.902664c-1.370319,1.557319 -3.044894,2.927872 -4.983723,4.040979c-0.369043,0.211855 -0.473085,0.646894 -0.23234,0.971651c0.152979,0.206426 0.408404,0.318579 0.669043,0.318579c0.149468,0 0.300745,-0.036979 0.435213,-0.114119c5.731915,-3.290638 9.330638,-8.662009 9.855106,-14.579822c0.005213,-0.032391 0.008723,-0.065064 0.00883,-0.098579zm-11.641808,-7.674068l2.393617,-1.053192l2.393617,1.053192l0,3.094698c-0.53383,0.058698 -1.065745,0.12526 -1.595745,0.199123l0,-1.387311c0,-0.387762 -0.357234,-0.702128 -0.797872,-0.702128s-0.797872,0.314366 -0.797872,0.702128l0,1.633711c-0.534255,0.090434 -1.066277,0.188357 -1.595745,0.294238l0,-3.83446zm-24.863404,18.4096c8.83851,-8.8484 21.459999,-14.008009 34.829999,-14.237932c0.092872,0.693796 0.139787,1.396579 0.139787,2.09674c0,0.237506 -0.007234,0.473983 -0.017872,0.709992c-5.685425,0.089404 -11.204468,1.112077 -16.415957,3.044332c-0.406064,0.150536 -0.596596,0.562264 -0.425532,0.919694c0.128511,0.268306 0.424255,0.429702 0.735638,0.429702c0.103298,0 0.208298,-0.017787 0.309468,-0.055234c4.975851,-1.844911 10.243191,-2.829481 15.67,-2.931711c-0.130319,0.96257 -0.347234,1.90754 -0.649149,2.826579c-5.359681,0.185362 -10.52117,1.298187 -15.350532,3.310953c-4.667447,1.945268 -8.79851,4.634511 -12.29117,7.99349c-1.004149,-0.395064 -1.964787,-0.860434 -2.874681,-1.388434c3.582128,-3.572894 7.834787,-6.480919 12.654893,-8.647873c0.39234,-0.176374 0.547979,-0.599336 0.347553,-0.944689c-0.200426,-0.345353 -0.68117,-0.482315 -1.073511,-0.305847c-5.047447,2.269089 -9.494149,5.322128 -13.231383,9.076545c-0.841383,-0.577055 -1.629574,-1.211498 -2.357553,-1.896306zm11.742234,5.448043c-1.246383,-0.164766 -2.455638,-0.430545 -3.617234,-0.78657c6.662766,-6.19726 15.842872,-9.951396 25.504255,-10.429873c-0.446383,1.02286 -0.999362,2.006119 -1.651808,2.937983c-7.555213,0.721413 -14.711702,3.649192 -20.235212,8.27846z"/>
   <path stroke="null" id="svg_3" d="m42.677658,7.249113c-4.721808,-4.674693 -10.999893,-7.249113 -17.677659,-7.249113s-12.955851,2.57442 -17.677659,7.249113c-4.721915,4.674588 -7.32234,10.889889 -7.32234,17.500874s2.600425,12.826286 7.32234,17.500874c4.721808,4.674693 10.999893,7.249113 17.677659,7.249113s12.955851,-2.57442 17.677659,-7.249113c4.721915,-4.674588 7.32234,-10.889889 7.32234,-17.500874s-2.600425,-12.826286 -7.32234,-17.500874zm-17.677659,40.671075c-12.905212,0 -23.404255,-10.394047 -23.404255,-23.170201s10.499042,-23.170201 23.404255,-23.170201s23.404255,10.394047 23.404255,23.170201s-10.499042,23.170201 -23.404255,23.170201z"/>
   <path stroke="null" id="svg_4" d="m24.999999,11.702128c2.786277,0 5.053191,-1.994885 5.053191,-4.446809s-2.266915,-4.446809 -5.053191,-4.446809s-5.053191,1.994885 -5.053191,4.446809s2.266915,4.446809 5.053191,4.446809zm0,-7.489362c1.906383,0 3.457447,1.364936 3.457447,3.042553s-1.551064,3.042553 -3.457447,3.042553s-3.457447,-1.364936 -3.457447,-3.042553s1.551064,-3.042553 3.457447,-3.042553z"/>
  </g>
  <g id="svg_5"/>
  <g id="svg_6"/>
  <g id="svg_7"/>
  <g id="svg_8"/>
  <g id="svg_9"/>
  <g id="svg_10"/>
  <g id="svg_11"/>
  <g id="svg_12"/>
  <g id="svg_13"/>
  <g id="svg_14"/>
  <g id="svg_15"/>
  <g id="svg_16"/>
  <g id="svg_17"/>
  <g id="svg_18"/>
  <g id="svg_19"/>
 </g>
</svg>